<svg aria-roledescription="timeline" role="graphics-document document" viewBox="0 -62 1390 744.2000122070312" style="max-width: 1390px;" xmlns="http://www.w3.org/2000/svg" width="100%" id="container"><style>#container{font-family:"trebuchet ms",verdana,arial,sans-serif;font-size:16px;fill:#000000;}#container .error-icon{fill:#552222;}#container .error-text{fill:#552222;stroke:#552222;}#container .edge-thickness-normal{stroke-width:2px;}#container .edge-thickness-thick{stroke-width:3.5px;}#container .edge-pattern-solid{stroke-dasharray:0;}#container .edge-pattern-dashed{stroke-dasharray:3;}#container .edge-pattern-dotted{stroke-dasharray:2;}#container .marker{fill:#000000;stroke:#000000;}#container .marker.cross{stroke:#000000;}#container svg{font-family:"trebuchet ms",verdana,arial,sans-serif;font-size:16px;}#container .edge{stroke-width:3;}#container .section--1 rect,#container .section--1 path,#container .section--1 circle,#container .section--1 path{fill:hsl(78.1578947368, 58.4615384615%, 64.5098039216%);}#container .section--1 text{fill:black;}#container .node-icon--1{font-size:40px;color:black;}#container .section-edge--1{stroke:hsl(78.1578947368, 58.4615384615%, 64.5098039216%);}#container .edge-depth--1{stroke-width:17;}#container .section--1 line{stroke:hsl(258.1578947368, 58.4615384615%, 64.5098039216%);stroke-width:3;}#container .lineWrapper line{stroke:black;}#container .disabled,#container .disabled circle,#container .disabled text{fill:lightgray;}#container .disabled text{fill:#efefef;}#container .section-0 rect,#container .section-0 path,#container .section-0 circle,#container .section-0 path{fill:hsl(98.961038961, 100%, 74.9019607843%);}#container .section-0 text{fill:black;}#container .node-icon-0{font-size:40px;color:black;}#container .section-edge-0{stroke:hsl(98.961038961, 100%, 74.9019607843%);}#container .edge-depth-0{stroke-width:14;}#container .section-0 line{stroke:hsl(278.961038961, 100%, 74.9019607843%);stroke-width:3;}#container .lineWrapper line{stroke:black;}#container .disabled,#container .disabled circle,#container .disabled text{fill:lightgray;}#container .disabled text{fill:#efefef;}#container .section-1 rect,#container .section-1 path,#container .section-1 circle,#container .section-1 path{fill:hsl(78.1578947368, 58.4615384615%, 74.5098039216%);}#container .section-1 text{fill:black;}#container .node-icon-1{font-size:40px;color:black;}#container .section-edge-1{stroke:hsl(78.1578947368, 58.4615384615%, 74.5098039216%);}#container .edge-depth-1{stroke-width:11;}#container .section-1 line{stroke:hsl(258.1578947368, 58.4615384615%, 74.5098039216%);stroke-width:3;}#container .lineWrapper line{stroke:black;}#container .disabled,#container .disabled circle,#container .disabled text{fill:lightgray;}#container .disabled text{fill:#efefef;}#container .section-2 rect,#container .section-2 path,#container .section-2 circle,#container .section-2 path{fill:hsl(108.1578947368, 58.4615384615%, 64.5098039216%);}#container .section-2 text{fill:black;}#container .node-icon-2{font-size:40px;color:black;}#container .section-edge-2{stroke:hsl(108.1578947368, 58.4615384615%, 64.5098039216%);}#container .edge-depth-2{stroke-width:8;}#container .section-2 line{stroke:hsl(288.1578947368, 58.4615384615%, 64.5098039216%);stroke-width:3;}#container .lineWrapper line{stroke:black;}#container .disabled,#container .disabled circle,#container .disabled text{fill:lightgray;}#container .disabled text{fill:#efefef;}#container .section-3 rect,#container .section-3 path,#container .section-3 circle,#container .section-3 path{fill:hsl(138.1578947368, 58.4615384615%, 64.5098039216%);}#container .section-3 text{fill:black;}#container .node-icon-3{font-size:40px;color:black;}#container .section-edge-3{stroke:hsl(138.1578947368, 58.4615384615%, 64.5098039216%);}#container .edge-depth-3{stroke-width:5;}#container .section-3 line{stroke:hsl(318.1578947368, 58.4615384615%, 64.5098039216%);stroke-width:3;}#container .lineWrapper line{stroke:black;}#container .disabled,#container .disabled circle,#container .disabled text{fill:lightgray;}#container .disabled text{fill:#efefef;}#container .section-4 rect,#container .section-4 path,#container .section-4 circle,#container .section-4 path{fill:hsl(168.1578947368, 58.4615384615%, 64.5098039216%);}#container .section-4 text{fill:black;}#container .node-icon-4{font-size:40px;color:black;}#container .section-edge-4{stroke:hsl(168.1578947368, 58.4615384615%, 64.5098039216%);}#container .edge-depth-4{stroke-width:2;}#container .section-4 line{stroke:hsl(348.1578947368, 58.4615384615%, 64.5098039216%);stroke-width:3;}#container .lineWrapper line{stroke:black;}#container .disabled,#container .disabled circle,#container .disabled text{fill:lightgray;}#container .disabled text{fill:#efefef;}#container .section-5 rect,#container .section-5 path,#container .section-5 circle,#container .section-5 path{fill:hsl(198.1578947368, 58.4615384615%, 64.5098039216%);}#container .section-5 text{fill:black;}#container .node-icon-5{font-size:40px;color:black;}#container .section-edge-5{stroke:hsl(198.1578947368, 58.4615384615%, 64.5098039216%);}#container .edge-depth-5{stroke-width:-1;}#container .section-5 line{stroke:hsl(18.1578947368, 58.4615384615%, 64.5098039216%);stroke-width:3;}#container .lineWrapper line{stroke:black;}#container .disabled,#container .disabled circle,#container .disabled text{fill:lightgray;}#container .disabled text{fill:#efefef;}#container .section-6 rect,#container .section-6 path,#container .section-6 circle,#container .section-6 path{fill:hsl(228.1578947368, 58.4615384615%, 64.5098039216%);}#container .section-6 text{fill:black;}#container .node-icon-6{font-size:40px;color:black;}#container .section-edge-6{stroke:hsl(228.1578947368, 58.4615384615%, 64.5098039216%);}#container .edge-depth-6{stroke-width:-4;}#container .section-6 line{stroke:hsl(48.1578947368, 58.4615384615%, 64.5098039216%);stroke-width:3;}#container .lineWrapper line{stroke:black;}#container .disabled,#container .disabled circle,#container .disabled text{fill:lightgray;}#container .disabled text{fill:#efefef;}#container .section-7 rect,#container .section-7 path,#container .section-7 circle,#container .section-7 path{fill:hsl(288.1578947368, 58.4615384615%, 64.5098039216%);}#container .section-7 text{fill:black;}#container .node-icon-7{font-size:40px;color:black;}#container .section-edge-7{stroke:hsl(288.1578947368, 58.4615384615%, 64.5098039216%);}#container .edge-depth-7{stroke-width:-7;}#container .section-7 line{stroke:hsl(108.1578947368, 58.4615384615%, 64.5098039216%);stroke-width:3;}#container .lineWrapper line{stroke:black;}#container .disabled,#container .disabled circle,#container .disabled text{fill:lightgray;}#container .disabled text{fill:#efefef;}#container .section-8 rect,#container .section-8 path,#container .section-8 circle,#container .section-8 path{fill:hsl(348.1578947368, 58.4615384615%, 64.5098039216%);}#container .section-8 text{fill:black;}#container .node-icon-8{font-size:40px;color:black;}#container .section-edge-8{stroke:hsl(348.1578947368, 58.4615384615%, 64.5098039216%);}#container .edge-depth-8{stroke-width:-10;}#container .section-8 line{stroke:hsl(168.1578947368, 58.4615384615%, 64.5098039216%);stroke-width:3;}#container .lineWrapper line{stroke:black;}#container .disabled,#container .disabled circle,#container .disabled text{fill:lightgray;}#container .disabled text{fill:#efefef;}#container .section-9 rect,#container .section-9 path,#container .section-9 circle,#container .section-9 path{fill:hsl(18.1578947368, 58.4615384615%, 64.5098039216%);}#container .section-9 text{fill:black;}#container .node-icon-9{font-size:40px;color:black;}#container .section-edge-9{stroke:hsl(18.1578947368, 58.4615384615%, 64.5098039216%);}#container .edge-depth-9{stroke-width:-13;}#container .section-9 line{stroke:hsl(198.1578947368, 58.4615384615%, 64.5098039216%);stroke-width:3;}#container .lineWrapper line{stroke:black;}#container .disabled,#container .disabled circle,#container .disabled text{fill:lightgray;}#container .disabled text{fill:#efefef;}#container .section-10 rect,#container .section-10 path,#container .section-10 circle,#container .section-10 path{fill:hsl(48.1578947368, 58.4615384615%, 64.5098039216%);}#container .section-10 text{fill:black;}#container .node-icon-10{font-size:40px;color:black;}#container .section-edge-10{stroke:hsl(48.1578947368, 58.4615384615%, 64.5098039216%);}#container .edge-depth-10{stroke-width:-16;}#container .section-10 line{stroke:hsl(228.1578947368, 58.4615384615%, 64.5098039216%);stroke-width:3;}#container .lineWrapper line{stroke:black;}#container .disabled,#container .disabled circle,#container .disabled text{fill:lightgray;}#container .disabled text{fill:#efefef;}#container .section-root rect,#container .section-root path,#container .section-root circle{fill:hsl(78.1578947368, 58.4615384615%, 49.5098039216%);}#container .section-root text{fill:#ffffff;}#container .icon-container{height:100%;display:flex;justify-content:center;align-items:center;}#container .edge{fill:none;}#container .eventWrapper{filter:brightness(120%);}#container :root{--mermaid-font-family:"trebuchet ms",verdana,arial,sans-serif;}</style><g></g><g></g><defs><marker orient="auto" markerHeight="4" markerWidth="6" refY="2" refX="5" id="arrowhead"><path d="M 0,0 V 4 L6,2 Z"></path></marker></defs><g transform="translate(100, 50)"><g class="timeline-node section--1"><g><path d="M0 62.8 v-57.8 q0,-5 5,-5 h180 q5,0 5,5 v62.8 H0 Z" class="node-bkg node-undefined" id="node-undefined"></path><line y2="67.8" x2="190" y1="67.8" x1="0" class="node-line--1"></line></g><g transform="translate(95, 10)"><text text-anchor="middle" dominant-baseline="middle" alignment-baseline="middle" dy="1em"><tspan dy="1em" x="0">Identical</tspan></text></g></g></g><g transform="translate(100, 167.8)" class="taskWrapper"><g class="timeline-node section--1"><g><path d="M0 62.8 v-57.8 q0,-5 5,-5 h180 q5,0 5,5 v62.8 H0 Z" class="node-bkg node-undefined" id="node-undefined"></path><line y2="67.8" x2="190" y1="67.8" x1="0" class="node-line--1"></line></g><g transform="translate(95, 10)"><text text-anchor="middle" dominant-baseline="middle" alignment-baseline="middle" dy="1em"><tspan dy="1em" x="0">Reusable</tspan></text></g></g></g><g class="lineWrapper"><line stroke-dasharray="5,5" marker-end="url(#arrowhead)" stroke="black" stroke-width="2" y2="632.1999984741211" x2="195" y1="235.60000000000002" x1="195"></line></g><g transform="translate(100, 367.8)" class="eventWrapper"><g class="timeline-node section--1"><g><path d="M0 60.39999847412109 v-55.39999847412109 q0,-5 5,-5 h180 q5,0 5,5 v60.39999847412109 H0 Z" class="node-bkg node-undefined" id="node-undefined"></path><line y2="65.39999847412109" x2="190" y1="65.39999847412109" x1="0" class="node-line--1"></line></g><g transform="translate(95, 10)"><text text-anchor="middle" dominant-baseline="middle" alignment-baseline="middle" dy="1em"><tspan dy="1em" x="0">Antora   Content</tspan><tspan dy="1.1em" x="0">Sources</tspan></text></g></g></g><g transform="translate(300, 50)"><g class="timeline-node section-0"><g><path d="M0 62.8 v-57.8 q0,-5 5,-5 h580 q5,0 5,5 v62.8 H0 Z" class="node-bkg node-undefined" id="node-undefined"></path><line y2="67.8" x2="590" y1="67.8" x1="0" class="node-line-0"></line></g><g transform="translate(295, 10)"><text text-anchor="middle" dominant-baseline="middle" alignment-baseline="middle" dy="1em"><tspan dy="1em" x="0">Variations</tspan></text></g></g></g><g transform="translate(300, 167.8)" class="taskWrapper"><g class="timeline-node section-0"><g><path d="M0 62.8 v-57.8 q0,-5 5,-5 h180 q5,0 5,5 v62.8 H0 Z" class="node-bkg node-undefined" id="node-undefined"></path><line y2="67.8" x2="190" y1="67.8" x1="0" class="node-line-0"></line></g><g transform="translate(95, 10)"><text text-anchor="middle" dominant-baseline="middle" alignment-baseline="middle" dy="1em"><tspan dy="1em" x="0">Modify   inline</tspan><tspan dy="1.1em" x="0">content</tspan></text></g></g></g><g class="lineWrapper"><line stroke-dasharray="5,5" marker-end="url(#arrowhead)" stroke="black" stroke-width="2" y2="632.1999984741211" x2="395" y1="235.60000000000002" x1="395"></line></g><g transform="translate(300, 367.8)" class="eventWrapper"><g class="timeline-node section-0"><g><path d="M0 45 v-40 q0,-5 5,-5 h180 q5,0 5,5 v45 H0 Z" class="node-bkg node-undefined" id="node-undefined"></path><line y2="50" x2="190" y1="50" x1="0" class="node-line-0"></line></g><g transform="translate(95, 10)"><text text-anchor="middle" dominant-baseline="middle" alignment-baseline="middle" dy="1em"><tspan dy="1em" x="0">AsciiDoc   Attribute</tspan></text></g></g></g><g transform="translate(300, 427.8)" class="eventWrapper"><g class="timeline-node section-0"><g><path d="M0 45 v-40 q0,-5 5,-5 h180 q5,0 5,5 v45 H0 Z" class="node-bkg node-undefined" id="node-undefined"></path><line y2="50" x2="190" y1="50" x1="0" class="node-line-0"></line></g><g transform="translate(95, 10)"><text text-anchor="middle" dominant-baseline="middle" alignment-baseline="middle" dy="1em"><tspan dy="1em" x="0">Antora   Component</tspan></text></g></g></g><g transform="translate(300, 487.8)" class="eventWrapper"><g class="timeline-node section-0"><g><path d="M0 45 v-40 q0,-5 5,-5 h180 q5,0 5,5 v45 H0 Z" class="node-bkg node-undefined" id="node-undefined"></path><line y2="50" x2="190" y1="50" x1="0" class="node-line-0"></line></g><g transform="translate(95, 10)"><text text-anchor="middle" dominant-baseline="middle" alignment-baseline="middle" dy="1em"><tspan dy="1em" x="0">Antora   Playbook</tspan></text></g></g></g><g transform="translate(500, 167.8)" class="taskWrapper"><g class="timeline-node section-0"><g><path d="M0 62.8 v-57.8 q0,-5 5,-5 h180 q5,0 5,5 v62.8 H0 Z" class="node-bkg node-undefined" id="node-undefined"></path><line y2="67.8" x2="190" y1="67.8" x1="0" class="node-line-0"></line></g><g transform="translate(95, 10)"><text text-anchor="middle" dominant-baseline="middle" alignment-baseline="middle" dy="1em"><tspan dy="1em" x="0">Modify   block</tspan><tspan dy="1.1em" x="0">content</tspan></text></g></g></g><g class="lineWrapper"><line stroke-dasharray="5,5" marker-end="url(#arrowhead)" stroke="black" stroke-width="2" y2="632.1999984741211" x2="595" y1="235.60000000000002" x1="595"></line></g><g transform="translate(500, 367.8)" class="eventWrapper"><g class="timeline-node section-0"><g><path d="M0 45 v-40 q0,-5 5,-5 h180 q5,0 5,5 v45 H0 Z" class="node-bkg node-undefined" id="node-undefined"></path><line y2="50" x2="190" y1="50" x1="0" class="node-line-0"></line></g><g transform="translate(95, 10)"><text text-anchor="middle" dominant-baseline="middle" alignment-baseline="middle" dy="1em"><tspan dy="1em" x="0">AsciiDoc   Attribute</tspan></text></g></g></g><g transform="translate(500, 427.8)" class="eventWrapper"><g class="timeline-node section-0"><g><path d="M0 45 v-40 q0,-5 5,-5 h180 q5,0 5,5 v45 H0 Z" class="node-bkg node-undefined" id="node-undefined"></path><line y2="50" x2="190" y1="50" x1="0" class="node-line-0"></line></g><g transform="translate(95, 10)"><text text-anchor="middle" dominant-baseline="middle" alignment-baseline="middle" dy="1em"><tspan dy="1em" x="0">AsciiDoc   Include</tspan></text></g></g></g><g transform="translate(500, 487.8)" class="eventWrapper"><g class="timeline-node section-0"><g><path d="M0 45 v-40 q0,-5 5,-5 h180 q5,0 5,5 v45 H0 Z" class="node-bkg node-undefined" id="node-undefined"></path><line y2="50" x2="190" y1="50" x1="0" class="node-line-0"></line></g><g transform="translate(95, 10)"><text text-anchor="middle" dominant-baseline="middle" alignment-baseline="middle" dy="1em"><tspan dy="1em" x="0">Antora   Example</tspan></text></g></g></g><g transform="translate(500, 547.8)" class="eventWrapper"><g class="timeline-node section-0"><g><path d="M0 60.39999847412109 v-55.39999847412109 q0,-5 5,-5 h180 q5,0 5,5 v60.39999847412109 H0 Z" class="node-bkg node-undefined" id="node-undefined"></path><line y2="65.39999847412109" x2="190" y1="65.39999847412109" x1="0" class="node-line-0"></line></g><g transform="translate(95, 10)"><text text-anchor="middle" dominant-baseline="middle" alignment-baseline="middle" dy="1em"><tspan dy="1em" x="0">Antora   Distributed</tspan><tspan dy="1.1em" x="0">Component   Version</tspan></text></g></g></g><g transform="translate(700, 167.8)" class="taskWrapper"><g class="timeline-node section-0"><g><path d="M0 62.8 v-57.8 q0,-5 5,-5 h180 q5,0 5,5 v62.8 H0 Z" class="node-bkg node-undefined" id="node-undefined"></path><line y2="67.8" x2="190" y1="67.8" x1="0" class="node-line-0"></line></g><g transform="translate(95, 10)"><text text-anchor="middle" dominant-baseline="middle" alignment-baseline="middle" dy="1em"><tspan dy="1em" x="0">Add   or   remove</tspan><tspan dy="1.1em" x="0">entire   page</tspan></text></g></g></g><g class="lineWrapper"><line stroke-dasharray="5,5" marker-end="url(#arrowhead)" stroke="black" stroke-width="2" y2="632.1999984741211" x2="795" y1="235.60000000000002" x1="795"></line></g><g transform="translate(700, 367.8)" class="eventWrapper"><g class="timeline-node section-0"><g><path d="M0 45 v-40 q0,-5 5,-5 h180 q5,0 5,5 v45 H0 Z" class="node-bkg node-undefined" id="node-undefined"></path><line y2="50" x2="190" y1="50" x1="0" class="node-line-0"></line></g><g transform="translate(95, 10)"><text text-anchor="middle" dominant-baseline="middle" alignment-baseline="middle" dy="1em"><tspan dy="1em" x="0">Antora   Pages</tspan></text></g></g></g><g transform="translate(700, 427.8)" class="eventWrapper"><g class="timeline-node section-0"><g><path d="M0 45 v-40 q0,-5 5,-5 h180 q5,0 5,5 v45 H0 Z" class="node-bkg node-undefined" id="node-undefined"></path><line y2="50" x2="190" y1="50" x1="0" class="node-line-0"></line></g><g transform="translate(95, 10)"><text text-anchor="middle" dominant-baseline="middle" alignment-baseline="middle" dy="1em"><tspan dy="1em" x="0">Antora   Navigation</tspan></text></g></g></g><g transform="translate(700, 487.8)" class="eventWrapper"><g class="timeline-node section-0"><g><path d="M0 60.39999847412109 v-55.39999847412109 q0,-5 5,-5 h180 q5,0 5,5 v60.39999847412109 H0 Z" class="node-bkg node-undefined" id="node-undefined"></path><line y2="65.39999847412109" x2="190" y1="65.39999847412109" x1="0" class="node-line-0"></line></g><g transform="translate(95, 10)"><text text-anchor="middle" dominant-baseline="middle" alignment-baseline="middle" dy="1em"><tspan dy="1em" x="0">Antora   Composer</tspan><tspan dy="1.1em" x="0">extension</tspan></text></g></g></g><g transform="translate(900, 50)"><g class="timeline-node section-1"><g><path d="M0 62.8 v-57.8 q0,-5 5,-5 h380 q5,0 5,5 v62.8 H0 Z" class="node-bkg node-undefined" id="node-undefined"></path><line y2="67.8" x2="390" y1="67.8" x1="0" class="node-line-1"></line></g><g transform="translate(195, 10)"><text text-anchor="middle" dominant-baseline="middle" alignment-baseline="middle" dy="1em"><tspan dy="1em" x="0">Delivery</tspan></text></g></g></g><g transform="translate(900, 167.8)" class="taskWrapper"><g class="timeline-node section-1"><g><path d="M0 62.8 v-57.8 q0,-5 5,-5 h180 q5,0 5,5 v62.8 H0 Z" class="node-bkg node-undefined" id="node-undefined"></path><line y2="67.8" x2="190" y1="67.8" x1="0" class="node-line-1"></line></g><g transform="translate(95, 10)"><text text-anchor="middle" dominant-baseline="middle" alignment-baseline="middle" dy="1em"><tspan dy="1em" x="0">Search</tspan></text></g></g></g><g class="lineWrapper"><line stroke-dasharray="5,5" marker-end="url(#arrowhead)" stroke="black" stroke-width="2" y2="632.1999984741211" x2="995" y1="235.60000000000002" x1="995"></line></g><g transform="translate(900, 367.8)" class="eventWrapper"><g class="timeline-node section-1"><g><path d="M0 60.39999847412109 v-55.39999847412109 q0,-5 5,-5 h180 q5,0 5,5 v60.39999847412109 H0 Z" class="node-bkg node-undefined" id="node-undefined"></path><line y2="65.39999847412109" x2="190" y1="65.39999847412109" x1="0" class="node-line-1"></line></g><g transform="translate(95, 10)"><text text-anchor="middle" dominant-baseline="middle" alignment-baseline="middle" dy="1em"><tspan dy="1em" x="0">Antora   Lunr</tspan><tspan dy="1.1em" x="0">extension</tspan></text></g></g></g><g transform="translate(1100, 167.8)" class="taskWrapper"><g class="timeline-node section-1"><g><path d="M0 62.8 v-57.8 q0,-5 5,-5 h180 q5,0 5,5 v62.8 H0 Z" class="node-bkg node-undefined" id="node-undefined"></path><line y2="67.8" x2="190" y1="67.8" x1="0" class="node-line-1"></line></g><g transform="translate(95, 10)"><text text-anchor="middle" dominant-baseline="middle" alignment-baseline="middle" dy="1em"><tspan dy="1em" x="0">Aggregate   document</tspan></text></g></g></g><g class="lineWrapper"><line stroke-dasharray="5,5" marker-end="url(#arrowhead)" stroke="black" stroke-width="2" y2="632.1999984741211" x2="1195" y1="235.60000000000002" x1="1195"></line></g><g transform="translate(1100, 367.8)" class="eventWrapper"><g class="timeline-node section-1"><g><path d="M0 60.39999847412109 v-55.39999847412109 q0,-5 5,-5 h180 q5,0 5,5 v60.39999847412109 H0 Z" class="node-bkg node-undefined" id="node-undefined"></path><line y2="65.39999847412109" x2="190" y1="65.39999847412109" x1="0" class="node-line-1"></line></g><g transform="translate(95, 10)"><text text-anchor="middle" dominant-baseline="middle" alignment-baseline="middle" dy="1em"><tspan dy="1em" x="0">Antora   Assembler</tspan><tspan dy="1.1em" x="0">extension</tspan></text></g></g></g><text y="20" font-weight="bold" font-size="4ex" x="545">Content journey</text><g class="lineWrapper"><line marker-end="url(#arrowhead)" stroke="black" stroke-width="4" y2="285.6" x2="1340" y1="285.6" x1="50"></line></g></svg>